<?xml version="1.0" encoding="UTF-8" standalone="no"?>
<!DOCTYPE svg PUBLIC "-//W3C//DTD SVG 1.1//EN"
 "http://www.w3.org/Graphics/SVG/1.1/DTD/svg11.dtd">
<!-- Generated by graphviz version 2.40.1 (20161225.0304)
 -->
<!-- Title: finite_state_machine Pages: 1 -->
<svg width="653pt" height="621pt"
 viewBox="0.00 0.00 653.37 621.00" xmlns="http://www.w3.org/2000/svg" xmlns:xlink="http://www.w3.org/1999/xlink">
<g id="graph0" class="graph" transform="scale(1 1) rotate(0) translate(4 617)">
<title>finite_state_machine</title>
<polygon fill="#ffffff" stroke="transparent" points="-4,4 -4,-617 649.3691,-617 649.3691,4 -4,4"/>
<!-- s_star -->
<g id="node1" class="node">
<title>s_star</title>
<ellipse fill="none" stroke="#000000" cx="31.1972" cy="-397" rx="31.3957" ry="18"/>
<text text-anchor="middle" x="31.1972" y="-393.3" font-family="Times,serif" font-size="14.00" fill="#000000">s_star</text>
</g>
<!-- s_0 -->
<g id="node2" class="node">
<title>s_0</title>
<ellipse fill="none" stroke="#000000" cx="139.3945" cy="-397" rx="27" ry="18"/>
<text text-anchor="middle" x="139.3945" y="-393.3" font-family="Times,serif" font-size="14.00" fill="#000000">s_0</text>
</g>
<!-- s_star&#45;&gt;s_0 -->
<g id="edge1" class="edge">
<title>s_star&#45;&gt;s_0</title>
<path fill="none" stroke="#000000" d="M62.4924,-397C74.9025,-397 89.2723,-397 102.2079,-397"/>
<polygon fill="#000000" stroke="#000000" points="102.2096,-400.5001 112.2096,-397 102.2095,-393.5001 102.2096,-400.5001"/>
<text text-anchor="middle" x="87.3945" y="-400.8" font-family="Times,serif" font-size="14.00" fill="#000000">0</text>
</g>
<!-- s_0&#45;&gt;s_star -->
<g id="edge7" class="edge">
<title>s_0&#45;&gt;s_star</title>
<path fill="none" stroke="#000000" d="M117.9834,-385.9048C110.6966,-382.6912 102.3737,-379.6155 94.3945,-378 84.1199,-375.9198 73.1166,-377.7539 63.218,-380.9699"/>
<polygon fill="#000000" stroke="#000000" points="61.8683,-377.7384 53.7556,-384.5528 64.3471,-384.2849 61.8683,-377.7384"/>
<text text-anchor="middle" x="87.3945" y="-381.8" font-family="Times,serif" font-size="14.00" fill="#000000">30</text>
</g>
<!-- s_1__j -->
<g id="node3" class="node">
<title>s_1__j</title>
<ellipse fill="none" stroke="#000000" cx="243.8414" cy="-509" rx="34.394" ry="18"/>
<text text-anchor="middle" x="243.8414" y="-505.3" font-family="Times,serif" font-size="14.00" fill="#000000">s_1__j</text>
</g>
<!-- s_0&#45;&gt;s_1__j -->
<g id="edge2" class="edge">
<title>s_0&#45;&gt;s_1__j</title>
<path fill="none" stroke="#000000" d="M145.7207,-414.7194C152.8251,-432.5509 165.8401,-459.9295 184.3945,-478 190.7473,-484.1872 198.5841,-489.4374 206.4589,-493.7602"/>
<polygon fill="#000000" stroke="#000000" points="205.1318,-497.0114 215.634,-498.4095 208.2959,-490.7673 205.1318,-497.0114"/>
<text text-anchor="middle" x="187.8945" y="-486.8" font-family="Times,serif" font-size="14.00" fill="#000000">1</text>
</g>
<!-- t_1__i -->
<g id="node4" class="node">
<title>t_1__i</title>
<ellipse fill="none" stroke="#000000" cx="365.985" cy="-425" rx="33.2948" ry="18"/>
<text text-anchor="middle" x="365.985" y="-421.3" font-family="Times,serif" font-size="14.00" fill="#000000">t_1__i</text>
</g>
<!-- s_0&#45;&gt;t_1__i -->
<g id="edge3" class="edge">
<title>s_0&#45;&gt;t_1__i</title>
<path fill="none" stroke="#000000" d="M166.2772,-400.3219C205.0765,-405.1164 277.1648,-414.0244 323.2917,-419.7243"/>
<polygon fill="#000000" stroke="#000000" points="322.9326,-423.2065 333.2863,-420.9594 323.7911,-416.2593 322.9326,-423.2065"/>
<text text-anchor="middle" x="243.8414" y="-416.8" font-family="Times,serif" font-size="14.00" fill="#000000">2</text>
</g>
<!-- t_4__i -->
<g id="node5" class="node">
<title>t_4__i</title>
<ellipse fill="none" stroke="#000000" cx="365.985" cy="-341" rx="33.2948" ry="18"/>
<text text-anchor="middle" x="365.985" y="-337.3" font-family="Times,serif" font-size="14.00" fill="#000000">t_4__i</text>
</g>
<!-- s_0&#45;&gt;t_4__i -->
<g id="edge4" class="edge">
<title>s_0&#45;&gt;t_4__i</title>
<path fill="none" stroke="#000000" d="M164.9468,-390.6849C204.0886,-381.0114 279.2326,-362.4402 325.7415,-350.9459"/>
<polygon fill="#000000" stroke="#000000" points="326.6231,-354.3334 335.4913,-348.5363 324.9436,-347.5378 326.6231,-354.3334"/>
<text text-anchor="middle" x="243.8414" y="-382.8" font-family="Times,serif" font-size="14.00" fill="#000000">3</text>
</g>
<!-- t_6__i -->
<g id="node6" class="node">
<title>t_6__i</title>
<ellipse fill="none" stroke="#000000" cx="243.8414" cy="-269" rx="33.2948" ry="18"/>
<text text-anchor="middle" x="243.8414" y="-265.3" font-family="Times,serif" font-size="14.00" fill="#000000">t_6__i</text>
</g>
<!-- s_0&#45;&gt;t_6__i -->
<g id="edge5" class="edge">
<title>s_0&#45;&gt;t_6__i</title>
<path fill="none" stroke="#000000" d="M146.2808,-379.4626C153.8314,-361.6842 167.196,-334.0161 184.3945,-314 192.6154,-304.4322 203.192,-295.6278 213.1394,-288.392"/>
<polygon fill="#000000" stroke="#000000" points="215.4463,-291.0502 221.6442,-282.4573 211.4405,-285.3096 215.4463,-291.0502"/>
<text text-anchor="middle" x="187.8945" y="-317.8" font-family="Times,serif" font-size="14.00" fill="#000000">4</text>
</g>
<!-- t_9__i -->
<g id="node7" class="node">
<title>t_9__i</title>
<ellipse fill="none" stroke="#000000" cx="243.8414" cy="-110" rx="33.2948" ry="18"/>
<text text-anchor="middle" x="243.8414" y="-106.3" font-family="Times,serif" font-size="14.00" fill="#000000">t_9__i</text>
</g>
<!-- s_0&#45;&gt;t_9__i -->
<g id="edge6" class="edge">
<title>s_0&#45;&gt;t_9__i</title>
<path fill="none" stroke="#000000" d="M145.7709,-379.4789C163.3194,-331.2588 212.437,-196.2934 233.7554,-137.7145"/>
<polygon fill="#000000" stroke="#000000" points="237.1509,-138.6185 237.2818,-128.0245 230.573,-136.2245 237.1509,-138.6185"/>
<text text-anchor="middle" x="187.8945" y="-274.8" font-family="Times,serif" font-size="14.00" fill="#000000">5</text>
</g>
<!-- s_1__j&#45;&gt;s_0 -->
<g id="edge10" class="edge">
<title>s_1__j&#45;&gt;s_0</title>
<path fill="none" stroke="#000000" d="M228.4229,-492.4665C210.5488,-473.2999 180.9759,-441.5884 160.861,-420.0189"/>
<polygon fill="#000000" stroke="#000000" points="163.2972,-417.4994 153.9174,-412.5731 158.1779,-422.2736 163.2972,-417.4994"/>
<text text-anchor="middle" x="187.8945" y="-452.8" font-family="Times,serif" font-size="14.00" fill="#000000">9</text>
</g>
<!-- s_2__j -->
<g id="node8" class="node">
<title>s_2__j</title>
<ellipse fill="none" stroke="#000000" cx="365.985" cy="-576" rx="34.394" ry="18"/>
<text text-anchor="middle" x="365.985" y="-572.3" font-family="Times,serif" font-size="14.00" fill="#000000">s_2__j</text>
</g>
<!-- s_1__j&#45;&gt;s_2__j -->
<g id="edge8" class="edge">
<title>s_1__j&#45;&gt;s_2__j</title>
<path fill="none" stroke="#000000" d="M266.9892,-522.4495C276.0864,-527.6804 286.6427,-533.6827 296.2884,-539 308.027,-545.471 320.9737,-552.4005 332.4903,-558.4927"/>
<polygon fill="#000000" stroke="#000000" points="330.8913,-561.6062 341.3694,-563.1742 334.1561,-555.4142 330.8913,-561.6062"/>
<text text-anchor="middle" x="303.2884" y="-549.8" font-family="Times,serif" font-size="14.00" fill="#000000">6</text>
</g>
<!-- s_3__j -->
<g id="node9" class="node">
<title>s_3__j</title>
<ellipse fill="none" stroke="#000000" cx="491.3783" cy="-576" rx="34.394" ry="18"/>
<text text-anchor="middle" x="491.3783" y="-572.3" font-family="Times,serif" font-size="14.00" fill="#000000">s_3__j</text>
</g>
<!-- s_1__j&#45;&gt;s_3__j -->
<g id="edge9" class="edge">
<title>s_1__j&#45;&gt;s_3__j</title>
<path fill="none" stroke="#000000" d="M278.1704,-511.461C310.9894,-514.4888 361.5657,-520.9306 403.6817,-534 422.685,-539.8971 442.7798,-549.2673 458.9325,-557.6624"/>
<polygon fill="#000000" stroke="#000000" points="457.4771,-560.8525 467.9494,-562.4589 460.7646,-554.6725 457.4771,-560.8525"/>
<text text-anchor="middle" x="365.985" y="-537.8" font-family="Times,serif" font-size="14.00" fill="#000000">8</text>
</g>
<!-- t_2__i -->
<g id="node10" class="node">
<title>t_2__i</title>
<ellipse fill="none" stroke="#000000" cx="612.222" cy="-312" rx="33.2948" ry="18"/>
<text text-anchor="middle" x="612.222" y="-308.3" font-family="Times,serif" font-size="14.00" fill="#000000">t_2__i</text>
</g>
<!-- t_1__i&#45;&gt;t_2__i -->
<g id="edge13" class="edge">
<title>t_1__i&#45;&gt;t_2__i</title>
<path fill="none" stroke="#000000" d="M379.4149,-441.5759C395.065,-459.4403 422.7586,-486.8138 453.6817,-498 485.1915,-509.3985 500.2202,-515.0352 529.075,-498 584.9532,-465.0106 603.4442,-383.785 609.4369,-340.3978"/>
<polygon fill="#000000" stroke="#000000" points="612.9398,-340.5915 610.7063,-330.2348 605.9938,-339.7239 612.9398,-340.5915"/>
<text text-anchor="middle" x="491.3783" y="-511.8" font-family="Times,serif" font-size="14.00" fill="#000000">11</text>
</g>
<!-- t_3__i -->
<g id="node11" class="node">
<title>t_3__i</title>
<ellipse fill="none" stroke="#000000" cx="491.3783" cy="-471" rx="33.2948" ry="18"/>
<text text-anchor="middle" x="491.3783" y="-467.3" font-family="Times,serif" font-size="14.00" fill="#000000">t_3__i</text>
</g>
<!-- t_1__i&#45;&gt;t_3__i -->
<g id="edge14" class="edge">
<title>t_1__i&#45;&gt;t_3__i</title>
<path fill="none" stroke="#000000" d="M393.5031,-435.0949C411.265,-441.6108 434.5963,-450.1697 454.0241,-457.2968"/>
<polygon fill="#000000" stroke="#000000" points="452.8974,-460.6115 463.4911,-460.7697 455.3083,-454.0397 452.8974,-460.6115"/>
<text text-anchor="middle" x="428.6817" y="-452.8" font-family="Times,serif" font-size="14.00" fill="#000000">12</text>
</g>
<!-- t_8__i -->
<g id="node12" class="node">
<title>t_8__i</title>
<ellipse fill="none" stroke="#000000" cx="491.3783" cy="-417" rx="33.2948" ry="18"/>
<text text-anchor="middle" x="491.3783" y="-413.3" font-family="Times,serif" font-size="14.00" fill="#000000">t_8__i</text>
</g>
<!-- t_1__i&#45;&gt;t_8__i -->
<g id="edge15" class="edge">
<title>t_1__i&#45;&gt;t_8__i</title>
<path fill="none" stroke="#000000" d="M398.9306,-422.8981C413.9306,-421.9411 431.8883,-420.7954 447.9701,-419.7694"/>
<polygon fill="#000000" stroke="#000000" points="448.4605,-423.2453 458.2174,-419.1156 448.0148,-416.2595 448.4605,-423.2453"/>
<text text-anchor="middle" x="428.6817" y="-424.8" font-family="Times,serif" font-size="14.00" fill="#000000">13</text>
</g>
<!-- t_4__i&#45;&gt;t_2__i -->
<g id="edge19" class="edge">
<title>t_4__i&#45;&gt;t_2__i</title>
<path fill="none" stroke="#000000" d="M395.789,-332.8968C412.6505,-328.6428 434.1993,-323.7547 453.6817,-321 492.3082,-315.5383 536.6723,-313.3647 568.6295,-312.513"/>
<polygon fill="#000000" stroke="#000000" points="569.0496,-316.0042 578.9653,-312.272 568.8863,-309.0061 569.0496,-316.0042"/>
<text text-anchor="middle" x="491.3783" y="-324.8" font-family="Times,serif" font-size="14.00" fill="#000000">17</text>
</g>
<!-- t_11__i -->
<g id="node13" class="node">
<title>t_11__i</title>
<ellipse fill="none" stroke="#000000" cx="491.3783" cy="-212" rx="37.8943" ry="18"/>
<text text-anchor="middle" x="491.3783" y="-208.3" font-family="Times,serif" font-size="14.00" fill="#000000">t_11__i</text>
</g>
<!-- t_4__i&#45;&gt;t_11__i -->
<g id="edge18" class="edge">
<title>t_4__i&#45;&gt;t_11__i</title>
<path fill="none" stroke="#000000" d="M385.509,-326.1732C399.9991,-314.7748 419.8966,-298.2721 435.6817,-282 449.2036,-268.0609 462.8047,-251.0375 473.1812,-237.2687"/>
<polygon fill="#000000" stroke="#000000" points="476.0417,-239.2874 479.1959,-229.173 470.4227,-235.1128 476.0417,-239.2874"/>
<text text-anchor="middle" x="428.6817" y="-298.8" font-family="Times,serif" font-size="14.00" fill="#000000">16</text>
</g>
<!-- t_5__i -->
<g id="node14" class="node">
<title>t_5__i</title>
<ellipse fill="none" stroke="#000000" cx="491.3783" cy="-363" rx="33.2948" ry="18"/>
<text text-anchor="middle" x="491.3783" y="-359.3" font-family="Times,serif" font-size="14.00" fill="#000000">t_5__i</text>
</g>
<!-- t_4__i&#45;&gt;t_5__i -->
<g id="edge20" class="edge">
<title>t_4__i&#45;&gt;t_5__i</title>
<path fill="none" stroke="#000000" d="M397.627,-346.5515C413.3686,-349.3134 432.6044,-352.6882 449.546,-355.6606"/>
<polygon fill="#000000" stroke="#000000" points="449.292,-359.1694 459.7464,-357.4502 450.5017,-352.2747 449.292,-359.1694"/>
<text text-anchor="middle" x="428.6817" y="-356.8" font-family="Times,serif" font-size="14.00" fill="#000000">18</text>
</g>
<!-- t_6__i&#45;&gt;t_2__i -->
<g id="edge23" class="edge">
<title>t_6__i&#45;&gt;t_2__i</title>
<path fill="none" stroke="#000000" d="M276.9631,-269.834C287.6046,-270.0121 299.444,-270.1161 310.2884,-270 351.8036,-269.5555 362.6068,-274.0474 403.6817,-268 411.896,-266.7906 413.4548,-264.1214 421.6817,-263 427.8469,-262.1596 429.5164,-262.1603 435.6817,-263 484.7338,-269.6811 539.394,-286.3495 574.7132,-298.3921"/>
<polygon fill="#000000" stroke="#000000" points="573.9884,-301.8449 584.5831,-301.8091 576.2785,-295.2301 573.9884,-301.8449"/>
<text text-anchor="middle" x="428.6817" y="-266.8" font-family="Times,serif" font-size="14.00" fill="#000000">21</text>
</g>
<!-- t_6__i&#45;&gt;t_11__i -->
<g id="edge22" class="edge">
<title>t_6__i&#45;&gt;t_11__i</title>
<path fill="none" stroke="#000000" d="M274.4426,-261.9535C317.8872,-251.9496 397.6836,-233.575 447.4452,-222.1164"/>
<polygon fill="#000000" stroke="#000000" points="448.321,-225.5064 457.2806,-219.8516 446.7502,-218.6849 448.321,-225.5064"/>
<text text-anchor="middle" x="365.985" y="-252.8" font-family="Times,serif" font-size="14.00" fill="#000000">20</text>
</g>
<!-- t_7__i -->
<g id="node15" class="node">
<title>t_7__i</title>
<ellipse fill="none" stroke="#000000" cx="365.985" cy="-194" rx="33.2948" ry="18"/>
<text text-anchor="middle" x="365.985" y="-190.3" font-family="Times,serif" font-size="14.00" fill="#000000">t_7__i</text>
</g>
<!-- t_6__i&#45;&gt;t_7__i -->
<g id="edge24" class="edge">
<title>t_6__i&#45;&gt;t_7__i</title>
<path fill="none" stroke="#000000" d="M258.0124,-252.2639C267.8371,-241.5355 281.7291,-227.9858 296.2884,-219 305.4901,-213.3208 316.1698,-208.6746 326.3625,-204.9957"/>
<polygon fill="#000000" stroke="#000000" points="327.5701,-208.2821 335.9217,-201.7628 325.3274,-201.6511 327.5701,-208.2821"/>
<text text-anchor="middle" x="303.2884" y="-222.8" font-family="Times,serif" font-size="14.00" fill="#000000">22</text>
</g>
<!-- t_9__i&#45;&gt;t_2__i -->
<g id="edge28" class="edge">
<title>t_9__i&#45;&gt;t_2__i</title>
<path fill="none" stroke="#000000" d="M268.1169,-97.6084C276.8054,-93.6462 286.7988,-89.6142 296.2884,-87 356.0405,-70.5391 381.7978,-60.3762 435.6817,-91 517.1631,-137.3084 575.273,-237.3995 599.5723,-285.344"/>
<polygon fill="#000000" stroke="#000000" points="596.5256,-287.0779 604.1097,-294.476 602.7944,-283.9632 596.5256,-287.0779"/>
<text text-anchor="middle" x="428.6817" y="-94.8" font-family="Times,serif" font-size="14.00" fill="#000000">26</text>
</g>
<!-- t_9__i&#45;&gt;t_11__i -->
<g id="edge27" class="edge">
<title>t_9__i&#45;&gt;t_11__i</title>
<path fill="none" stroke="#000000" d="M271.4683,-99.7719C304.6798,-89.251 361.2398,-77.1022 403.6817,-98 440.153,-115.958 465.704,-157.1811 479.474,-184.8153"/>
<polygon fill="#000000" stroke="#000000" points="476.3777,-186.4535 483.8518,-193.9627 482.6919,-183.4315 476.3777,-186.4535"/>
<text text-anchor="middle" x="365.985" y="-101.8" font-family="Times,serif" font-size="14.00" fill="#000000">25</text>
</g>
<!-- t_10__i -->
<g id="node16" class="node">
<title>t_10__i</title>
<ellipse fill="none" stroke="#000000" cx="365.985" cy="-140" rx="37.8943" ry="18"/>
<text text-anchor="middle" x="365.985" y="-136.3" font-family="Times,serif" font-size="14.00" fill="#000000">t_10__i</text>
</g>
<!-- t_9__i&#45;&gt;t_10__i -->
<g id="edge29" class="edge">
<title>t_9__i&#45;&gt;t_10__i</title>
<path fill="none" stroke="#000000" d="M274.3483,-117.4929C288.8392,-121.052 306.4234,-125.3709 322.298,-129.2699"/>
<polygon fill="#000000" stroke="#000000" points="321.8871,-132.7729 332.4333,-131.7593 323.5568,-125.975 321.8871,-132.7729"/>
<text text-anchor="middle" x="303.2884" y="-129.8" font-family="Times,serif" font-size="14.00" fill="#000000">27</text>
</g>
<!-- s_2__j&#45;&gt;s_3__j -->
<g id="edge11" class="edge">
<title>s_2__j&#45;&gt;s_3__j</title>
<path fill="none" stroke="#000000" d="M400.5812,-576C414.8349,-576 431.5317,-576 446.6929,-576"/>
<polygon fill="#000000" stroke="#000000" points="446.895,-579.5001 456.895,-576 446.895,-572.5001 446.895,-579.5001"/>
<text text-anchor="middle" x="428.6817" y="-579.8" font-family="Times,serif" font-size="14.00" fill="#000000">7</text>
</g>
<!-- s_3__j&#45;&gt;s_0 -->
<g id="edge12" class="edge">
<title>s_3__j&#45;&gt;s_0</title>
<path fill="none" stroke="#000000" d="M464.5058,-587.2859C431.9148,-599.4125 375.4805,-615.3817 328.2884,-603 252.7119,-583.1712 223.1811,-569.8276 184.3945,-502 169.9459,-476.7333 157.2744,-445.9287 149.0909,-424.2393"/>
<polygon fill="#000000" stroke="#000000" points="152.3055,-422.8412 145.5513,-414.6784 145.741,-425.2716 152.3055,-422.8412"/>
<text text-anchor="middle" x="303.2884" y="-601.8" font-family="Times,serif" font-size="14.00" fill="#000000">10</text>
</g>
<!-- t_2__i&#45;&gt;s_0 -->
<g id="edge16" class="edge">
<title>t_2__i&#45;&gt;s_0</title>
<path fill="none" stroke="#000000" d="M609.2878,-293.877C598.0037,-227.2885 554.8391,0 491.3783,0 243.8414,0 243.8414,0 243.8414,0 167.4805,0 145.774,-278.1702 140.7277,-368.8166"/>
<polygon fill="#000000" stroke="#000000" points="137.227,-368.7387 140.1924,-378.9101 144.2172,-369.1096 137.227,-368.7387"/>
<text text-anchor="middle" x="365.985" y="-3.8" font-family="Times,serif" font-size="14.00" fill="#000000">14</text>
</g>
<!-- t_3__i&#45;&gt;t_2__i -->
<g id="edge17" class="edge">
<title>t_3__i&#45;&gt;t_2__i</title>
<path fill="none" stroke="#000000" d="M513.2824,-457.4781C518.7849,-453.5202 524.4376,-448.9215 529.075,-444 559.3142,-411.9081 584.7198,-367.2482 599.2097,-338.9849"/>
<polygon fill="#000000" stroke="#000000" points="602.5035,-340.2255 603.8698,-329.7192 596.2498,-337.0803 602.5035,-340.2255"/>
<text text-anchor="middle" x="554.075" y="-424.8" font-family="Times,serif" font-size="14.00" fill="#000000">15</text>
</g>
<!-- t_8__i&#45;&gt;t_2__i -->
<g id="edge26" class="edge">
<title>t_8__i&#45;&gt;t_2__i</title>
<path fill="none" stroke="#000000" d="M512.0924,-402.9062C517.7148,-398.8821 523.7246,-394.3935 529.075,-390 550.239,-372.6211 572.8138,-351.2435 589.0922,-335.266"/>
<polygon fill="#000000" stroke="#000000" points="591.8942,-337.4175 596.5439,-327.8975 586.9723,-332.44 591.8942,-337.4175"/>
<text text-anchor="middle" x="554.075" y="-377.8" font-family="Times,serif" font-size="14.00" fill="#000000">24</text>
</g>
<!-- t_11__i&#45;&gt;t_2__i -->
<g id="edge31" class="edge">
<title>t_11__i&#45;&gt;t_2__i</title>
<path fill="none" stroke="#000000" d="M525.7945,-219.6604C537.7899,-223.4897 550.8049,-229.0566 561.075,-237 577.6449,-249.816 590.7961,-269.5413 599.612,-285.5466"/>
<polygon fill="#000000" stroke="#000000" points="596.5454,-287.2351 604.2947,-294.46 602.7423,-283.9795 596.5454,-287.2351"/>
<text text-anchor="middle" x="554.075" y="-240.8" font-family="Times,serif" font-size="14.00" fill="#000000">29</text>
</g>
<!-- t_5__i&#45;&gt;t_2__i -->
<g id="edge21" class="edge">
<title>t_5__i&#45;&gt;t_2__i</title>
<path fill="none" stroke="#000000" d="M517.5996,-351.9338C534.7422,-344.699 557.3612,-335.1531 576.1856,-327.2085"/>
<polygon fill="#000000" stroke="#000000" points="577.7824,-330.3337 585.6346,-323.2208 575.0606,-323.8845 577.7824,-330.3337"/>
<text text-anchor="middle" x="554.075" y="-343.8" font-family="Times,serif" font-size="14.00" fill="#000000">19</text>
</g>
<!-- t_7__i&#45;&gt;t_11__i -->
<g id="edge25" class="edge">
<title>t_7__i&#45;&gt;t_11__i</title>
<path fill="none" stroke="#000000" d="M398.2557,-198.6291C410.0342,-200.319 423.4607,-202.2456 435.6817,-204 438.7261,-204.437 441.8641,-204.8876 445.0267,-205.3417"/>
<polygon fill="#000000" stroke="#000000" points="444.7305,-208.835 455.1265,-206.7921 445.7256,-201.9061 444.7305,-208.835"/>
<text text-anchor="middle" x="428.6817" y="-207.8" font-family="Times,serif" font-size="14.00" fill="#000000">23</text>
</g>
<!-- t_10__i&#45;&gt;t_11__i -->
<g id="edge30" class="edge">
<title>t_10__i&#45;&gt;t_11__i</title>
<path fill="none" stroke="#000000" d="M390.1621,-153.8823C409.4663,-164.9667 436.725,-180.6184 458.0916,-192.887"/>
<polygon fill="#000000" stroke="#000000" points="456.4327,-195.9704 466.8476,-197.9146 459.9183,-189.8999 456.4327,-195.9704"/>
<text text-anchor="middle" x="428.6817" y="-182.8" font-family="Times,serif" font-size="14.00" fill="#000000">28</text>
</g>
</g>
</svg>
